<?xml version="1.0" standalone="no"?>
<!DOCTYPE svg PUBLIC "-//W3C//DTD SVG 20010904//EN"
 "http://www.w3.org/TR/2001/REC-SVG-20010904/DTD/svg10.dtd">
<svg version="1.0" xmlns="http://www.w3.org/2000/svg"
 width="460.000000pt" height="460.000000pt" viewBox="0 0 460.000000 460.000000"
 preserveAspectRatio="xMidYMid meet">
<metadata>
Created by potrace 1.14, written by Peter Selinger 2001-2017
</metadata>
<g transform="translate(0.000000,460.000000) scale(0.100000,-0.100000)"
fill="#000000" stroke="none">
<path d="M2284 4085 c-142 -34 -306 -163 -367 -288 l-29 -57 -537 0 c-324 0
-560 -4 -592 -10 -131 -25 -274 -131 -333 -248 -58 -114 -56 -81 -56 -1140 0
-1061 -2 -1030 57 -1145 37 -73 136 -168 213 -206 86 -41 146 -51 311 -51
l138 0 3 -227 c3 -220 4 -229 26 -261 46 -64 131 -88 195 -56 18 9 151 135
297 280 l265 264 960 1 c1038 1 1007 -1 1117 55 151 77 269 274 256 430 -2 32
1 45 12 49 40 15 140 94 179 142 81 99 119 194 128 320 8 106 -8 185 -59 291
-45 96 -131 190 -210 232 l-48 25 0 415 c0 457 -2 480 -61 591 -65 121 -208
222 -344 243 -16 2 -220 5 -452 5 l-422 1 -28 58 c-53 109 -231 259 -331 277
-12 2 -27 7 -33 11 -20 12 -203 12 -255 -1z m89 -1793 c-5 -23 -25 -32 -20
-10 2 12 20 38 24 34 1 -1 0 -12 -4 -24z m-50 5 c4 3 7 -1 7 -11 0 -23 -32
-17 -36 7 -2 14 1 15 10 8 7 -6 16 -8 19 -4z m231 1 c-3 -4 0 -8 5 -8 6 0 11
4 11 10 0 5 11 -2 25 -16 30 -30 31 -34 4 -34 -13 0 -18 4 -13 13 6 8 3 8 -9
-1 -9 -8 -22 -11 -29 -7 -7 4 -6 1 2 -7 9 -7 17 -24 17 -38 2 -18 0 -21 -7
-10 -5 8 -6 18 -4 22 3 4 -3 5 -12 1 -10 -4 -15 -2 -11 4 3 5 0 10 -8 10 -22
0 -18 -15 5 -22 11 -3 20 -11 20 -16 0 -11 -21 -12 -35 -1 -15 10 -12 48 3 44
8 -1 12 6 9 23 -4 30 -17 45 -17 20 0 -10 -3 -16 -6 -12 -13 13 5 33 29 33 14
0 23 -4 21 -8z m66 -2 c0 -11 -19 -15 -25 -6 -3 5 1 10 9 10 9 0 16 -2 16 -4z
m23 -41 c-7 -21 -12 -19 -10 4 0 11 5 18 9 15 4 -3 5 -11 1 -19z m-300 -6 c-6
-6 -9 -18 -6 -25 3 -9 -2 -14 -15 -14 -14 0 -20 6 -19 19 0 10 6 17 13 14 7
-2 15 0 19 6 3 6 9 11 13 11 3 0 1 -5 -5 -11z m-62 -44 c5 4 9 -3 9 -14 0 -12
5 -21 10 -21 6 0 9 6 8 13 -2 6 3 12 10 12 6 0 12 -4 11 -9 0 -5 3 -12 9 -15
5 -3 13 -14 19 -24 8 -16 10 -14 10 12 0 17 -4 31 -9 31 -6 0 -8 5 -6 12 7 20
38 17 49 -5 10 -21 10 -21 -5 -3 -15 18 -21 15 -16 -9 1 -5 4 -19 6 -29 2 -11
9 -23 16 -28 28 -17 -34 -7 -72 12 -46 24 -71 55 -69 90 2 24 2 24 6 -3 2 -15
9 -25 14 -22z m369 15 c0 -5 -6 -7 -14 -4 -18 7 -30 -12 -15 -22 8 -4 9 -3 5
4 -9 15 -1 15 26 1 19 -10 20 -9 15 10 -3 11 -1 21 4 21 5 0 9 -11 9 -23 0
-21 -5 -24 -40 -25 -33 -2 -40 1 -40 17 0 19 12 29 38 30 6 1 12 -3 12 -9z
m-235 -59 c3 -5 2 -12 -3 -15 -5 -3 -9 1 -9 9 0 17 3 19 12 6z m275 -151 c0
-5 -10 -10 -22 -10 -19 0 -20 2 -8 10 19 13 30 13 30 0z m-15 -30 c3 -6 -1 -7
-9 -4 -18 7 -21 14 -7 14 6 0 13 -4 16 -10z m-356 -49 c2 -1 -2 -8 -9 -16 -11
-13 -11 -18 0 -28 8 -8 11 -8 7 -1 -4 7 0 17 8 24 14 11 14 10 5 -14 -7 -20
-7 -25 2 -20 7 5 8 3 3 -6 -5 -9 -4 -11 3 -6 7 4 12 2 12 -3 0 -14 -2 -14 -36
4 -16 8 -25 15 -20 15 6 0 1 7 -10 16 -13 11 -15 17 -6 20 6 3 10 9 7 14 -4 7
3 7 34 1z m338 -6 c-15 -6 -24 -15 -20 -19 4 -4 0 -4 -10 0 -10 3 -17 1 -17
-6 0 -6 4 -9 10 -5 5 3 5 -7 -1 -25 -6 -16 -15 -30 -20 -30 -5 0 -8 3 -6 8 1
4 -2 7 -8 7 -5 0 -9 -5 -7 -12 2 -8 -3 -10 -12 -7 -20 8 -16 26 8 39 10 5 19
15 20 20 1 22 28 40 59 41 l32 1 -28 -12z m4 -36 c-11 -12 -24 -19 -28 -15 -5
4 3 16 16 27 31 25 39 17 12 -12z m-301 11 c-11 -7 -11 -10 -2 -10 7 0 11 -4
7 -9 -3 -5 -1 -12 5 -16 5 -3 10 2 10 12 0 15 2 15 9 3 6 -8 7 -18 5 -22 -3
-4 2 -5 11 -2 13 5 13 9 3 23 -9 11 -7 11 9 -2 12 -11 27 -16 34 -11 7 4 10 3
5 -4 -3 -6 -2 -13 4 -17 5 -3 10 1 10 9 0 18 25 22 35 6 4 -6 1 -17 -5 -25 -9
-11 -9 -15 -1 -15 6 0 11 4 11 9 0 5 8 8 18 6 9 -2 22 -4 27 -5 22 -4 -43 -18
-88 -19 -46 -1 -116 24 -103 36 3 4 -1 14 -10 24 -17 18 -12 39 9 39 7 0 6 -4
-3 -10z m187 -30 c-1 -11 -7 -22 -15 -25 -7 -2 -10 0 -7 5 3 6 1 10 -4 10 -6
0 -11 5 -11 11 0 6 7 9 15 5 8 -3 15 -1 15 4 0 6 2 10 4 10 3 0 4 -9 3 -20z"/>
<path d="M2533 2287 c0 -16 34 -20 43 -5 4 7 2 8 -5 4 -6 -4 -18 -3 -25 3 -9
8 -13 7 -13 -2z"/>
<path d="M2310 2166 c0 -2 7 -7 16 -10 8 -3 12 -2 9 4 -6 10 -25 14 -25 6z"/>
<path d="M2289 1913 c-13 -16 -12 -17 4 -4 9 7 17 15 17 17 0 8 -8 3 -21 -13z"/>
<path d="M2595 1880 c-3 -5 -1 -10 4 -10 6 0 11 5 11 10 0 6 -2 10 -4 10 -3 0
-8 -4 -11 -10z"/>
<path d="M2406 1844 c-14 -10 -16 -14 -5 -15 8 0 27 -2 43 -4 15 -2 27 -3 25
-2 -2 1 -13 10 -24 19 -17 14 -22 15 -39 2z"/>
</g>
</svg>
